<?xml version="1.0" standalone="no"?>
<!DOCTYPE svg PUBLIC "-//W3C//DTD SVG 20010904//EN"
 "http://www.w3.org/TR/2001/REC-SVG-20010904/DTD/svg10.dtd">
<svg version="1.0" xmlns="http://www.w3.org/2000/svg"
 width="970.000000pt" height="970.000000pt" viewBox="0 0 970.000000 970.000000"
 preserveAspectRatio="xMidYMid meet">
<metadata>
Created by potrace 1.14, written by Peter Selinger 2001-2017
</metadata>
<g transform="translate(0.000000,970.000000) scale(0.100000,-0.100000)"
fill="#000000" stroke="none">
<path d="M5750 8329 c-141 -37 -197 -65 -273 -138 -111 -105 -157 -239 -157
-455 0 -195 43 -362 132 -516 38 -67 43 -81 42 -136 -1 -69 -18 -104 -125
-254 -68 -96 -75 -111 -95 -195 -24 -100 -36 -139 -45 -158 -6 -10 -35 -89
-65 -175 -85 -240 -77 -223 -142 -297 -28 -32 -40 -38 -74 -38 -57 0 -82 18
-132 92 -160 236 -463 352 -663 254 -79 -39 -166 -127 -203 -204 -24 -52 -30
-77 -30 -134 0 -38 5 -87 11 -109 12 -45 82 -117 131 -136 67 -25 79 -35 108
-86 39 -67 39 -112 3 -146 -16 -14 -41 -29 -58 -32 -16 -4 -89 -36 -160 -70
-112 -54 -143 -75 -213 -141 -128 -120 -254 -290 -313 -422 -17 -37 -34 -75
-38 -83 -5 -9 -12 -35 -16 -59 -6 -38 -19 -55 -94 -127 -88 -84 -144 -165
-187 -269 -47 -117 -110 -195 -229 -285 -33 -25 -87 -71 -120 -103 -102 -99
-130 -111 -268 -115 -102 -4 -119 -7 -127 -23 -22 -41 112 -95 264 -106 l78
-6 27 -44 c39 -65 78 -68 107 -9 23 44 114 126 142 126 24 0 53 -27 92 -83 33
-47 67 -70 96 -63 20 5 24 13 24 42 0 19 -7 51 -15 71 -8 19 -15 57 -15 84 0
39 4 50 22 60 35 19 117 99 167 164 25 33 53 67 61 76 8 8 26 29 40 45 42 47
273 317 300 348 60 71 130 124 192 146 96 35 177 -54 178 -193 0 -67 -37 -146
-152 -320 -63 -95 -127 -194 -143 -221 -17 -27 -39 -63 -49 -80 -85 -139 -110
-207 -121 -326 -3 -41 -8 -83 -11 -93 -5 -15 -104 -87 -120 -87 -16 0 -179
-125 -251 -193 -73 -70 -178 -207 -199 -261 -3 -9 -34 -30 -69 -46 -42 -20
-96 -61 -162 -123 -97 -90 -101 -93 -174 -109 -41 -9 -91 -19 -111 -23 -108
-17 -160 -69 -207 -207 -15 -44 -23 -52 -131 -123 -106 -69 -119 -75 -167 -75
-107 0 -163 -47 -163 -136 0 -41 -10 -30 220 -248 l104 -98 44 5 c62 7 118 50
154 117 16 30 46 71 66 91 33 33 48 39 140 57 64 13 118 30 140 44 21 13 68
30 106 37 139 25 320 138 387 241 30 46 33 48 87 53 38 3 90 21 157 52 55 25
118 55 140 65 220 102 436 214 540 279 50 31 180 91 199 91 2 0 63 27 134 60
117 55 133 60 175 54 26 -4 52 -13 58 -20 6 -8 17 -14 24 -14 7 0 23 -9 37
-19 40 -32 167 -70 305 -91 39 -7 74 -17 76 -24 6 -14 107 -76 152 -93 34 -12
141 -44 230 -69 35 -9 128 -19 225 -24 165 -8 318 -35 378 -66 15 -8 41 -16
57 -20 20 -3 60 -33 109 -79 88 -82 192 -146 313 -195 60 -25 101 -50 155 -97
95 -83 235 -156 298 -156 55 1 106 21 162 65 24 18 45 36 48 39 3 3 55 44 116
90 140 106 171 133 214 189 19 24 41 51 48 58 6 7 12 31 12 51 0 34 -5 42 -41
66 -53 35 -91 34 -165 -1 -54 -26 -70 -29 -186 -32 l-127 -4 -10 39 c-5 21
-12 53 -16 71 -9 42 -30 52 -108 52 -40 0 -68 5 -74 13 -6 6 -16 48 -23 92 -7
44 -19 87 -27 96 -14 17 -89 43 -153 53 -19 3 -46 16 -60 29 -132 119 -230
176 -310 181 -39 2 -47 6 -59 32 -66 138 -283 293 -481 345 -118 31 -123 49
-51 194 26 55 61 142 76 194 26 91 27 101 22 260 -10 324 -93 608 -216 742
-53 57 -55 63 -67 194 -13 139 -56 306 -115 444 l-49 113 94 192 c91 185 105
216 140 301 10 24 20 94 26 175 22 295 32 357 85 496 15 38 35 101 45 140 18
70 17 121 -6 262 l-7 42 101 0 c56 0 125 5 154 11 69 14 199 76 264 124 146
110 224 314 195 509 -34 221 -235 425 -470 475 -61 13 -271 13 -321 0z"/>
</g>
</svg>
